<svg xmlns="http://www.w3.org/2000/svg" width="20.923" height="17" viewBox="0 0 20.923 17">
  <path id="Icon_awesome-list-ul" data-name="Icon awesome-list-ul" d="M1.962,3.375A1.962,1.962,0,1,0,3.923,5.337,1.962,1.962,0,0,0,1.962,3.375Zm0,6.538a1.962,1.962,0,1,0,1.962,1.962A1.962,1.962,0,0,0,1.962,9.913Zm0,6.538a1.962,1.962,0,1,0,1.962,1.962,1.962,1.962,0,0,0-1.962-1.962Zm18.308.654H7.192a.654.654,0,0,0-.654.654v1.308a.654.654,0,0,0,.654.654H20.269a.654.654,0,0,0,.654-.654V17.76A.654.654,0,0,0,20.269,17.106Zm0-13.077H7.192a.654.654,0,0,0-.654.654V5.99a.654.654,0,0,0,.654.654H20.269a.654.654,0,0,0,.654-.654V4.683A.654.654,0,0,0,20.269,4.029Zm0,6.538H7.192a.654.654,0,0,0-.654.654v1.308a.654.654,0,0,0,.654.654H20.269a.654.654,0,0,0,.654-.654V11.221A.654.654,0,0,0,20.269,10.567Z" transform="translate(0 -3.375)" fill="#b85c5c"/>
</svg>
